<svg xmlns="http://www.w3.org/2000/svg" width="24" height="24" viewBox="0 0 24 24">
  <g id="그룹_105" data-name="그룹 105" transform="translate(-3980 27)">
    <rect id="Boundary" width="24" height="24" transform="translate(3980 -27)" fill="none"/>
    <path id="_Color" data-name=" ↳Color" d="M8.667,20.25A2.126,2.126,0,0,1,6.5,18.172h4.333A2.126,2.126,0,0,1,8.667,20.25Zm8.667-3.116H0V16.1l2.166-2.077V8.826A7.14,7.14,0,0,1,3.442,4.611a6,6,0,0,1,3.6-2.347V1.558a1.627,1.627,0,0,1,3.251,0v.706a5.994,5.994,0,0,1,3.6,2.351,7.147,7.147,0,0,1,1.272,4.212v5.193L17.333,16.1v1.037ZM8.667,4.153A4.1,4.1,0,0,0,5.488,5.524a4.962,4.962,0,0,0-1.155,3.3v6.231H13V8.826a4.963,4.963,0,0,0-1.155-3.3A4.1,4.1,0,0,0,8.667,4.153Z" transform="translate(3983.333 -25.333)" fill="#666"/>
  </g>
</svg>
