<svg xmlns="http://www.w3.org/2000/svg" width="102" height="70.245" viewBox="0 0 102 70.245">
  <g id="그룹_1270" data-name="그룹 1270" transform="translate(-655.436 -157.912)">
    <path id="패스_841" data-name="패스 841" d="M756.247,215.779h-3.515v-51.5a6.372,6.372,0,0,0-6.363-6.365H666.507a6.372,6.372,0,0,0-6.365,6.365v46.929a1.191,1.191,0,1,0,2.381,0V164.277a4.037,4.037,0,0,1,3.983-3.983h79.862a4.038,4.038,0,0,1,3.986,3.983v51.5H720.727a1.191,1.191,0,0,0,0,2.382h34.331v3.866a3.814,3.814,0,0,1-3.869,3.749h-89.5a3.814,3.814,0,0,1-3.869-3.749v-3.866h33.826l2.824,2.927a1.2,1.2,0,0,0,.856.365h20.347a1.191,1.191,0,0,0,0-2.382H695.829L693,216.144a1.194,1.194,0,0,0-.856-.365H656.627a1.192,1.192,0,0,0-1.191,1.191v5.057a6.2,6.2,0,0,0,6.25,6.13h89.5a6.2,6.2,0,0,0,6.246-6.13V216.97A1.191,1.191,0,0,0,756.247,215.779Z" transform="translate(0 0)" fill="#666"/>
    <path id="패스_842" data-name="패스 842" d="M778.75,179.86l-.964-1.93.333-.657a.612.612,0,0,0-.27-.822l-.331-.167.323-.639a1.069,1.069,0,0,0,.055-.84,1.1,1.1,0,0,0-.549-.625l-.93-.47a1.107,1.107,0,0,0-.829-.071,1.071,1.071,0,0,0-.645.543l-.322.639-.331-.167a.613.613,0,0,0-.822.27l-5.229,10.345a.611.611,0,0,0,.075.665l-7.339,14.521-.007.014,0,.005c0,.01-.01.021-.013.03l-.009.025c0,.011-.008.022-.011.032s-.005.02-.008.032v0l0,.016-1.182,5.947a.612.612,0,0,0,1.052.531l4.08-4.471.007-.008a.58.58,0,0,0,.045-.054l.011-.017c.011-.017.022-.035.032-.054l.006-.01,7.339-14.521a.612.612,0,0,0,.58-.335l4.208-8.327.42.84L774.2,186.7a.611.611,0,1,0,1.091.552l3.456-6.838A.615.615,0,0,0,778.75,179.86Zm-2.777-5,.714.361-.26.515-.714-.361Zm-3.921,11.711h-.017a.572.572,0,0,0-.081,0l-.012,0a.6.6,0,0,0-.084.017l-.016,0a.584.584,0,0,0-.079.03l-.011.005h0a.613.613,0,0,0-.074.042l0,0a.7.7,0,0,0-.07.057l-.012.011a.636.636,0,0,0-.057.065l-.009.012,0,0-.01.015H771.5l-.022.043-.024.019v.029l-7.541,14.921-2.552,2.8.6-3.019.919.444a.6.6,0,0,0,.266.061.612.612,0,0,0,.266-1.162l-1.07-.518,7.04-13.929,1.089.526a.611.611,0,0,0,.532-1.1l-1.4-.677,4.675-9.25,2.467,1.247Z" transform="translate(-48.045 -7.222)" fill="#666"/>
    <path id="패스_843" data-name="패스 843" d="M720.4,225.327h0c-.008.216-.016.422-.034.619l-.041.029-.044.03-.011.008c-1.008.682-1.581,1.218-1.519,1.938a1.109,1.109,0,0,0,.668.918,1.383,1.383,0,0,0,.573.124,1.472,1.472,0,0,0,.562-.113,3.138,3.138,0,0,0,1.415-1.613c.026-.068.051-.14.074-.212l.048-.023a6.578,6.578,0,0,0,1.792-1.065,2.759,2.759,0,0,0,1.535.933,2.892,2.892,0,0,0,2.562-.556c1.418,2.031,4.009,1.932,5.916,1.86a5.165,5.165,0,0,1,2.52.232.932.932,0,0,0,1.17-1.451c-.934-.753-2.307-.7-3.761-.644a9.472,9.472,0,0,1-3.115-.216,2.4,2.4,0,0,1-1.627-1.769.932.932,0,0,0-1.717-.167c-.4.758-.891,1.054-1.5.9-.457-.114-.76-.275-.791-1.43a.932.932,0,0,0-1.859-.066,1.762,1.762,0,0,1-.941,1.245c0-.264,0-.638,0-1.007a5.869,5.869,0,0,0-.122-1.382.927.927,0,0,0-.774-.729l-.018,0c-.188-.029-.342-.045-.48-.06a3.165,3.165,0,0,1-.955-.22,1.839,1.839,0,0,1-.507-.288l.035-.067a13.618,13.618,0,0,0,1.212-4.092l.031-.177a7.3,7.3,0,0,0,.114-2.8,2.081,2.081,0,0,0-1.663-1.7,2.551,2.551,0,0,0-2.533,1.2,4.821,4.821,0,0,0-.61,2.858,11.121,11.121,0,0,0,1.149,4.916,19.05,19.05,0,0,1-5.481,4.914.932.932,0,1,0,1,1.571,21.587,21.587,0,0,0,5.739-5.049,3.743,3.743,0,0,0,.866.456,4.943,4.943,0,0,0,1.121.292c.022.6.018,1.434.01,1.644Zm-1.543-8.831-.031.18h0a16.2,16.2,0,0,1-.562,2.433,12.922,12.922,0,0,1-.4-2.817,3.065,3.065,0,0,1,.317-1.765.765.765,0,0,1,.585-.374.293.293,0,0,1,.05,0c.036.007.12.022.171.258A5.974,5.974,0,0,1,718.854,216.5Z" transform="translate(-25.706 -25.051)" fill="#666"/>
  </g>
</svg>
