<svg xmlns="http://www.w3.org/2000/svg" width="138" height="24" viewBox="0 0 138 24">
  <g id="그룹_1272" data-name="그룹 1272" transform="translate(-1115 -1453)">
    <g id="그룹_1271" data-name="그룹 1271" transform="translate(1078.325 1410.293)">
      <path id="패스_806" data-name="패스 806" d="M51.115,46.606V56.737L44.176,46.606h-7.5V66.686H44.15V56.555l6.94,10.131h7.5V46.606Z" fill="#39ad36"/>
      <path id="패스_807" data-name="패스 807" d="M165.09,59.175a5.567,5.567,0,0,0,4.369-5.735c0-5.172-4.106-6.833-9.515-6.833H150.6V66.687h7.474v-6.27l4.462,6.27h8.594Zm-3.673-4.091a3.471,3.471,0,0,1-1.971.529h-1.6V51.658h1.573a3.446,3.446,0,0,1,2.032.539,1.841,1.841,0,0,1,.609,1.475A1.71,1.71,0,0,1,161.417,55.084Z" transform="translate(-26.279 0)" fill="#39ad36"/>
      <path id="패스_808" data-name="패스 808" d="M126.921,46.606h15.157v5.229h-7.752V54.2h7.142v4.935h-7.142v2.323h7.99v5.23H126.921Z" transform="translate(-20.816 0)" fill="#39ad36"/>
      <path id="패스_809" data-name="패스 809" d="M83.635,46.606H75.109L67.243,66.687H75.56l.726-2.622h6.175l.726,2.622H91.5ZM77.511,59.423,79.27,52.8h.2l1.761,6.624Z" transform="translate(-7.051 0)" fill="#39ad36"/>
      <path id="패스_810" data-name="패스 810" d="M109.527,46.606l-3.685,12.108h-.206l-3.683-12.108H93.8l8.412,20.081h7.057l8.411-20.081Z" transform="translate(-13.176)" fill="#39ad36"/>
    </g>
    <g id="icon_action_check_circle_24px_" data-name="icon/action/check_circle_24px " transform="translate(1229 1453)">
      <rect id="Boundary" width="24" height="24" fill="none"/>
      <path id="_Color" data-name=" ↳Color" d="M5.727,11.075l-4.3-4.388L0,8.149,5.727,14,18,1.463,16.568,0Z" transform="translate(3 5)"/>
    </g>
  </g>
</svg>
