<svg xmlns="http://www.w3.org/2000/svg" width="15.788" height="16" viewBox="0 0 15.788 16">
  <g id="그룹_850" data-name="그룹 850" transform="translate(-312.198 -420.873)">
    <path id="패스_159" data-name="패스 159" d="M325.891,422.214h-1.354v-.95a.392.392,0,0,0-.783,0v.95h-1.92v-.95a.392.392,0,0,0-.783,0v.95h-1.919v-.95a.391.391,0,0,0-.783,0v.95H316.43v-.95a.392.392,0,0,0-.783,0v.95H312.2v14.659h15.788V422.214ZM327.2,436.09H312.981V423h2.666v.831a.392.392,0,0,0,.783,0V423h1.919v.831a.391.391,0,0,0,.783,0V423h1.919v.831a.392.392,0,0,0,.783,0V423h1.92v.831a.392.392,0,0,0,.783,0V423H327.2Z" transform="translate(0 0)" fill="#666"/>
    <rect id="사각형_99" data-name="사각형 99" width="0.911" height="0.912" transform="translate(315.57 429.548)" fill="#666"/>
    <rect id="사각형_100" data-name="사각형 100" width="0.912" height="0.912" transform="translate(315.578 432.23)" fill="#666"/>
    <rect id="사각형_101" data-name="사각형 101" width="0.911" height="0.912" transform="translate(318.285 432.23)" fill="#666"/>
    <rect id="사각형_102" data-name="사각형 102" width="0.912" height="0.912" transform="translate(320.992 432.23)" fill="#666"/>
    <rect id="사각형_103" data-name="사각형 103" width="0.912" height="0.912" transform="translate(315.546 426.864)" fill="#666"/>
    <rect id="사각형_104" data-name="사각형 104" width="0.911" height="0.912" transform="translate(318.254 429.546)" fill="#666"/>
    <rect id="사각형_105" data-name="사각형 105" width="0.911" height="0.912" transform="translate(320.961 429.546)" fill="#666"/>
    <rect id="사각형_106" data-name="사각형 106" width="0.911" height="0.912" transform="translate(323.669 429.546)" fill="#666"/>
    <rect id="사각형_107" data-name="사각형 107" width="0.912" height="0.912" transform="translate(318.23 426.862)" fill="#666"/>
    <rect id="사각형_108" data-name="사각형 108" width="0.911" height="0.912" transform="translate(320.938 426.862)" fill="#666"/>
    <rect id="사각형_109" data-name="사각형 109" width="0.912" height="0.912" transform="translate(323.645 426.862)" fill="#666"/>
  </g>
</svg>
