<svg id="그룹_901" data-name="그룹 901" xmlns="http://www.w3.org/2000/svg" width="18" height="18" viewBox="0 0 18 18">
  <path id="패스_772" data-name="패스 772" d="M0,0H18V18H0Z" fill="none"/>
  <path id="패스_773" data-name="패스 773" d="M9.908,14.662a1.455,1.455,0,1,1-1.454-1.523A1.494,1.494,0,0,1,9.908,14.662ZM8.454,8.569a1.525,1.525,0,1,0,1.454,1.523A1.494,1.494,0,0,0,8.454,8.569ZM8.454,4A1.494,1.494,0,0,0,7,5.523a1.455,1.455,0,1,0,2.908,0A1.494,1.494,0,0,0,8.454,4Zm4.361,3.046a1.494,1.494,0,0,0,1.454-1.523,1.455,1.455,0,1,0-2.908,0A1.494,1.494,0,0,0,12.815,7.046Zm0,1.523a1.525,1.525,0,1,0,1.454,1.523A1.494,1.494,0,0,0,12.815,8.569Zm0,4.569a1.525,1.525,0,1,0,1.454,1.523A1.494,1.494,0,0,0,12.815,13.139Z" transform="translate(-1.634 -1.092)" fill="#838ea2"/>
</svg>
