<svg xmlns="http://www.w3.org/2000/svg" width="40" height="40" viewBox="0 0 40 40">
  <g id="그룹_1062" data-name="그룹 1062" transform="translate(-1442 -1201)">
    <g id="그룹_1246" data-name="그룹 1246">
      <g id="패스_162" data-name="패스 162" transform="translate(1442 1201)" fill="#fff">
        <path d="M 20 39.5 C 17.36730003356934 39.5 14.8136100769043 38.98448944091797 12.40987968444824 37.96780014038086 C 10.08788967132568 36.98567962646484 8.002429962158203 35.57958984375 6.211420059204102 33.78858184814453 C 4.42041015625 31.99757957458496 3.014319896697998 29.9121208190918 2.03220009803772 27.59012985229492 C 1.015509963035583 25.1863899230957 0.5 22.63269996643066 0.5 20 C 0.5 17.36730003356934 1.015509963035583 14.8136100769043 2.03220009803772 12.40987968444824 C 3.014319896697998 10.08788967132568 4.42041015625 8.002429962158203 6.211420059204102 6.211420059204102 C 8.002429962158203 4.42041015625 10.08788967132568 3.014319896697998 12.40987968444824 2.03220009803772 C 14.8136100769043 1.015509963035583 17.36730003356934 0.5 20 0.5 C 22.63269996643066 0.5 25.1863899230957 1.015509963035583 27.59012985229492 2.03220009803772 C 29.9121208190918 3.014319896697998 31.99757957458496 4.42041015625 33.78858184814453 6.211420059204102 C 35.57958984375 8.002429962158203 36.98567962646484 10.08788967132568 37.96780014038086 12.40987968444824 C 38.98448944091797 14.8136100769043 39.5 17.36730003356934 39.5 20 C 39.5 22.63269996643066 38.98448944091797 25.1863899230957 37.96780014038086 27.59012985229492 C 36.98567962646484 29.9121208190918 35.57958984375 31.99757957458496 33.78858184814453 33.78858184814453 C 31.99757957458496 35.57958984375 29.9121208190918 36.98567962646484 27.59012985229492 37.96780014038086 C 25.1863899230957 38.98448944091797 22.63269996643066 39.5 20 39.5 Z" stroke="none"/>
        <path d="M 20 1 C 17.4345703125 1 14.94642066955566 1.502220153808594 12.60465049743652 2.492698669433594 C 10.34226036071777 3.449611663818359 8.310220718383789 4.819721221923828 6.564968109130859 6.564968109130859 C 4.819721221923828 8.310220718383789 3.449611663818359 10.34226036071777 2.492698669433594 12.60465049743652 C 1.502220153808594 14.94642066955566 1 17.4345703125 1 20 C 1 22.5654296875 1.502220153808594 25.05358123779297 2.492698669433594 27.39535140991211 C 3.449611663818359 29.65773963928223 4.819721221923828 31.68978118896484 6.564968109130859 33.43502807617188 C 8.310220718383789 35.18027877807617 10.34226036071777 36.55038833618164 12.60465049743652 37.50730133056641 C 14.94642066955566 38.49777984619141 17.4345703125 39 20 39 C 22.5654296875 39 25.05358123779297 38.49777984619141 27.39535140991211 37.50730133056641 C 29.65773963928223 36.55038833618164 31.68978118896484 35.18027877807617 33.43502807617188 33.43502807617188 C 35.18027877807617 31.68978118896484 36.55038833618164 29.65773963928223 37.50730133056641 27.39535140991211 C 38.49777984619141 25.05358123779297 39 22.5654296875 39 20 C 39 17.4345703125 38.49777984619141 14.94642066955566 37.50730133056641 12.60465049743652 C 36.55038833618164 10.34226036071777 35.18027877807617 8.310220718383789 33.43502807617188 6.564968109130859 C 31.68978118896484 4.819721221923828 29.65773963928223 3.449611663818359 27.39535140991211 2.492698669433594 C 25.05358123779297 1.502220153808594 22.5654296875 1 20 1 M 20 0 C 31.04570007324219 0 40 8.954299926757812 40 20 C 40 31.04570007324219 31.04570007324219 40 20 40 C 8.954299926757812 40 0 31.04570007324219 0 20 C 0 8.954299926757812 8.954299926757812 0 20 0 Z" stroke="none" fill="#eee"/>
      </g>
      <g id="그룹_241" data-name="그룹 241" transform="translate(-30 1100.738)">
        <path id="합치기_5" data-name="합치기 5" d="M9.938,17.464a1.852,1.852,0,0,1,2.619-2.619,1.852,1.852,0,0,1-2.619,2.619Zm-5.607-1.58H0V0H22.57V15.883h-4.5V14.5h3.119V1.385H1.384V14.5H4.331v1.385h0Zm10.312-2.316a5.618,5.618,0,0,0-1.58-.928A5.116,5.116,0,0,0,11.2,12.3a5.058,5.058,0,0,0-1.856.34,5.922,5.922,0,0,0-1.591.931l-.189.155L6.416,12.63l.226-.2A6.893,6.893,0,0,1,11.2,10.721a6.764,6.764,0,0,1,2.467.454,6.9,6.9,0,0,1,2.073,1.254l.224.2-1.127,1.1Zm2.483-2.538a8.778,8.778,0,0,0-2.683-1.714,8.593,8.593,0,0,0-3.244-.6,8.6,8.6,0,0,0-3.245.6A8.771,8.771,0,0,0,5.271,11.03l-.189.176L3.927,10.128l.213-.2a10.247,10.247,0,0,1,14.117,0l.213.2-1.156,1.077Z" transform="translate(1481 111.262)" fill="#0079f2"/>
      </g>
    </g>
  </g>
</svg>
