<svg xmlns="http://www.w3.org/2000/svg" xmlns:xlink="http://www.w3.org/1999/xlink" width="40" height="40" viewBox="0 0 40 40">
  <defs>
    <linearGradient id="linear-gradient" x1="0.035" y1="0.735" x2="1.636" y2="-0.075" gradientUnits="objectBoundingBox">
      <stop offset="0" stop-color="aqua"/>
      <stop offset="0.31" stop-color="#29bfff"/>
      <stop offset="1" stop-color="#8334ff"/>
    </linearGradient>
    <linearGradient id="linear-gradient-2" x1="1.585" y1="1.441" x2="-0.641" y2="0.052" xlink:href="#linear-gradient"/>
    <linearGradient id="linear-gradient-3" x1="0.5" y1="-0.06" x2="0.5" y2="1.678" gradientUnits="objectBoundingBox">
      <stop offset="0.06" stop-color="aqua"/>
      <stop offset="0.274" stop-color="#29bfff"/>
      <stop offset="0.75" stop-color="#8334ff"/>
    </linearGradient>
    <linearGradient id="linear-gradient-4" x1="1.003" y1="0.879" x2="-1.233" y2="-0.809" xlink:href="#linear-gradient"/>
  </defs>
  <g id="그룹_1064" data-name="그룹 1064" transform="translate(-1296 -1203)">
    <g id="패스_163" data-name="패스 163" transform="translate(1296 1203)" fill="#fff">
      <path d="M 20 39.5 C 17.36730003356934 39.5 14.8136100769043 38.98448944091797 12.40987968444824 37.96780014038086 C 10.08788967132568 36.98567962646484 8.002429962158203 35.57958984375 6.211420059204102 33.78858184814453 C 4.42041015625 31.99757957458496 3.014319896697998 29.9121208190918 2.03220009803772 27.59012985229492 C 1.015509963035583 25.1863899230957 0.5 22.63269996643066 0.5 20 C 0.5 17.36730003356934 1.015509963035583 14.8136100769043 2.03220009803772 12.40987968444824 C 3.014319896697998 10.08788967132568 4.42041015625 8.002429962158203 6.211420059204102 6.211420059204102 C 8.002429962158203 4.42041015625 10.08788967132568 3.014319896697998 12.40987968444824 2.03220009803772 C 14.8136100769043 1.015509963035583 17.36730003356934 0.5 20 0.5 C 22.63269996643066 0.5 25.1863899230957 1.015509963035583 27.59012985229492 2.03220009803772 C 29.9121208190918 3.014319896697998 31.99757957458496 4.42041015625 33.78858184814453 6.211420059204102 C 35.57958984375 8.002429962158203 36.98567962646484 10.08788967132568 37.96780014038086 12.40987968444824 C 38.98448944091797 14.8136100769043 39.5 17.36730003356934 39.5 20 C 39.5 22.63269996643066 38.98448944091797 25.1863899230957 37.96780014038086 27.59012985229492 C 36.98567962646484 29.9121208190918 35.57958984375 31.99757957458496 33.78858184814453 33.78858184814453 C 31.99757957458496 35.57958984375 29.9121208190918 36.98567962646484 27.59012985229492 37.96780014038086 C 25.1863899230957 38.98448944091797 22.63269996643066 39.5 20 39.5 Z" stroke="none"/>
      <path d="M 20 1 C 17.4345703125 1 14.94642066955566 1.502220153808594 12.60465049743652 2.492698669433594 C 10.34226036071777 3.449611663818359 8.310220718383789 4.819721221923828 6.564968109130859 6.564968109130859 C 4.819721221923828 8.310220718383789 3.449611663818359 10.34226036071777 2.492698669433594 12.60465049743652 C 1.502220153808594 14.94642066955566 1 17.4345703125 1 20 C 1 22.5654296875 1.502220153808594 25.05358123779297 2.492698669433594 27.39535140991211 C 3.449611663818359 29.65773963928223 4.819721221923828 31.68978118896484 6.564968109130859 33.43502807617188 C 8.310220718383789 35.18027877807617 10.34226036071777 36.55038833618164 12.60465049743652 37.50730133056641 C 14.94642066955566 38.49777984619141 17.4345703125 39 20 39 C 22.5654296875 39 25.05358123779297 38.49777984619141 27.39535140991211 37.50730133056641 C 29.65773963928223 36.55038833618164 31.68978118896484 35.18027877807617 33.43502807617188 33.43502807617188 C 35.18027877807617 31.68978118896484 36.55038833618164 29.65773963928223 37.50730133056641 27.39535140991211 C 38.49777984619141 25.05358123779297 39 22.5654296875 39 20 C 39 17.4345703125 38.49777984619141 14.94642066955566 37.50730133056641 12.60465049743652 C 36.55038833618164 10.34226036071777 35.18027877807617 8.310220718383789 33.43502807617188 6.564968109130859 C 31.68978118896484 4.819721221923828 29.65773963928223 3.449611663818359 27.39535140991211 2.492698669433594 C 25.05358123779297 1.502220153808594 22.5654296875 1 20 1 M 20 0 C 31.04570007324219 0 40 8.954299926757812 40 20 C 40 31.04570007324219 31.04570007324219 40 20 40 C 8.954299926757812 40 0 31.04570007324219 0 20 C 0 8.954299926757812 8.954299926757812 0 20 0 Z" stroke="none" fill="#eee"/>
    </g>
    <g id="그룹_1265" data-name="그룹 1265" transform="translate(731.313 1104.746)">
      <path id="패스_835" data-name="패스 835" d="M575.688,127.13a.972.972,0,0,0,.971.972h8.367v-6.411h-9.338Z" fill="url(#linear-gradient)"/>
      <path id="패스_836" data-name="패스 836" d="M594.625,115.236a2.239,2.239,0,0,0-.767-1.568l-5.644-4.386v8.094h0v.007h.011v1.537a7.181,7.181,0,0,1,4.445-1.537l.063,0,0,0h1.894Z" fill="url(#linear-gradient-2)"/>
      <path id="패스_837" data-name="패스 837" d="M588.214,117.376h0v-8.094h0Z" fill="#fff"/>
      <path id="패스_838" data-name="패스 838" d="M588.214,117.376h0v-8.094h0Z" fill="#fff"/>
      <path id="패스_839" data-name="패스 839" d="M585.924,107.5a1.315,1.315,0,0,0-1.534,0l-7.935,6.167a2.239,2.239,0,0,0-.767,1.568v6.455h9.338v-4.308h3.188v-8.1h0Z" fill="url(#linear-gradient-3)"/>
      <path id="패스_840" data-name="패스 840" d="M592.539,120.176l.009,0a4.431,4.431,0,0,0-4.3,4.423v3.506h5.41a.971.971,0,0,0,.971-.971v-6.961Z" fill="url(#linear-gradient-4)"/>
    </g>
  </g>
</svg>
