<svg xmlns="http://www.w3.org/2000/svg" width="32" height="32" viewBox="0 0 32 32">
  <g id="그룹_195" data-name="그룹 195" transform="translate(-1756 -454)">
    <g id="사각형_110" data-name="사각형 110" transform="translate(1756 454)" fill="none" stroke="#0079f2" stroke-width="1">
      <rect width="32" height="32" rx="5" stroke="none"/>
      <rect x="0.5" y="0.5" width="31" height="31" rx="4.5" fill="none"/>
    </g>
    <g id="그룹_194" data-name="그룹 194">
      <g id="사각형_111" data-name="사각형 111" transform="translate(1766 463)" fill="none" stroke="#0079f2" stroke-width="1">
        <path d="M3,0H9a3,3,0,0,1,3,3V14a0,0,0,0,1,0,0H0a0,0,0,0,1,0,0V3A3,3,0,0,1,3,0Z" stroke="none"/>
        <path d="M3,.5H9A2.5,2.5,0,0,1,11.5,3V13.5a0,0,0,0,1,0,0H.5a0,0,0,0,1,0,0V3A2.5,2.5,0,0,1,3,.5Z" fill="none"/>
      </g>
      <g id="사각형_112" data-name="사각형 112" transform="translate(1768.2 466.8)" fill="none" stroke="#0079f2" stroke-width="1">
        <rect width="1.5" height="1.5" stroke="none"/>
        <rect x="0.5" y="0.5" width="0.5" height="0.5" fill="none"/>
      </g>
      <g id="사각형_115" data-name="사각형 115" transform="translate(1768.2 469.8)" fill="none" stroke="#0079f2" stroke-width="1">
        <rect width="1.5" height="1.5" stroke="none"/>
        <rect x="0.5" y="0.5" width="0.5" height="0.5" fill="none"/>
      </g>
      <g id="사각형_118" data-name="사각형 118" transform="translate(1768.2 472.8)" fill="none" stroke="#0079f2" stroke-width="1">
        <rect width="1.5" height="1.5" stroke="none"/>
        <rect x="0.5" y="0.5" width="0.5" height="0.5" fill="none"/>
      </g>
      <g id="사각형_113" data-name="사각형 113" transform="translate(1771.2 466.8)" fill="none" stroke="#0079f2" stroke-width="1">
        <rect width="1.5" height="1.5" stroke="none"/>
        <rect x="0.5" y="0.5" width="0.5" height="0.5" fill="none"/>
      </g>
      <g id="사각형_117" data-name="사각형 117" transform="translate(1771.2 469.8)" fill="none" stroke="#0079f2" stroke-width="1">
        <rect width="1.5" height="1.5" stroke="none"/>
        <rect x="0.5" y="0.5" width="0.5" height="0.5" fill="none"/>
      </g>
      <g id="사각형_120" data-name="사각형 120" transform="translate(1771.2 472.8)" fill="none" stroke="#0079f2" stroke-width="1">
        <rect width="1.5" height="1.5" stroke="none"/>
        <rect x="0.5" y="0.5" width="0.5" height="0.5" fill="none"/>
      </g>
      <g id="사각형_114" data-name="사각형 114" transform="translate(1774.2 466.8)" fill="none" stroke="#0079f2" stroke-width="1">
        <rect width="1.5" height="1.5" stroke="none"/>
        <rect x="0.5" y="0.5" width="0.5" height="0.5" fill="none"/>
      </g>
      <g id="사각형_116" data-name="사각형 116" transform="translate(1774.2 469.8)" fill="none" stroke="#0079f2" stroke-width="1">
        <rect width="1.5" height="1.5" stroke="none"/>
        <rect x="0.5" y="0.5" width="0.5" height="0.5" fill="none"/>
      </g>
      <g id="사각형_119" data-name="사각형 119" transform="translate(1774.2 472.8)" fill="none" stroke="#0079f2" stroke-width="1">
        <rect width="1.5" height="1.5" stroke="none"/>
        <rect x="0.5" y="0.5" width="0.5" height="0.5" fill="none"/>
      </g>
    </g>
  </g>
</svg>
