<svg xmlns="http://www.w3.org/2000/svg" width="150.273" height="56" viewBox="0 0 150.273 56">
  <g id="그룹_252" data-name="그룹 252" transform="translate(-179.315 -376.889)">
    <g id="그룹_254" data-name="그룹 254" transform="translate(179.315 376.889)">
      <path id="패스_164" data-name="패스 164" d="M230.647,381.075A14.786,14.786,0,0,0,219.93,376.9a14.125,14.125,0,0,0-7.844,2.435,14.493,14.493,0,0,0-5.125,5.175,14.882,14.882,0,0,0-5.125-5.2,13.848,13.848,0,0,0-8.154-2.406,14.519,14.519,0,0,0-10.174,3.807q-4.195,3.96-4.193,10.638V416.27a1.9,1.9,0,1,0,3.8,0V391.419A10.754,10.754,0,0,1,186.3,383.5a10.668,10.668,0,0,1,15.726.737,14.4,14.4,0,0,1,2.989,9.358v22.56a2.058,2.058,0,1,0,4.116,0h0V392.04a11.982,11.982,0,0,1,3.106-8.23,9.871,9.871,0,0,1,7.688-3.495,10.47,10.47,0,0,1,8.271,3.727q3.067,3.652,3.068,9.784V416.27a1.941,1.941,0,1,0,3.882,0V391.288A13.558,13.558,0,0,0,230.647,381.075Z" transform="translate(-179.315 -376.889)" fill="#a6a7a7"/>
      <g id="그룹_252-2" data-name="그룹 252" transform="translate(38.695 21.146)">
        <path id="패스_165" data-name="패스 165" d="M241.209,409.545a2.136,2.136,0,0,0-2.136,2.136v15.867a2.136,2.136,0,1,0,4.272,0V411.681A2.136,2.136,0,0,0,241.209,409.545Z" transform="translate(-239.073 -409.545)" fill="#a6a7a7"/>
      </g>
      <g id="그룹_253" data-name="그룹 253" transform="translate(37.996 10.179)">
        <path id="패스_166" data-name="패스 166" d="M243.663,395.406a2.472,2.472,0,0,0-2.8-2.8,2.54,2.54,0,0,0-2.872,2.874q.077,2.718,2.872,2.718A2.471,2.471,0,0,0,243.663,395.406Z" transform="translate(-237.994 -392.609)" fill="#8cb808"/>
      </g>
    </g>
    <g id="그룹_257" data-name="그룹 257" transform="translate(179.315 422.5)">
      <path id="패스_167" data-name="패스 167" d="M188.972,453.42a2.779,2.779,0,0,0-2.016-.786,2.661,2.661,0,0,0-1.476.458,2.727,2.727,0,0,0-.964.974,2.8,2.8,0,0,0-.964-.979,2.6,2.6,0,0,0-1.534-.453,2.729,2.729,0,0,0-1.914.716,2.622,2.622,0,0,0-.789,2v4.69a.358.358,0,0,0,.716,0v-4.676a2.022,2.022,0,0,1,.6-1.49,2.007,2.007,0,0,1,2.959.139,2.711,2.711,0,0,1,.562,1.761v4.245a.387.387,0,1,0,.774,0h0v-4.537a2.255,2.255,0,0,1,.585-1.548,1.857,1.857,0,0,1,1.446-.657,1.972,1.972,0,0,1,1.557.7,2.771,2.771,0,0,1,.577,1.841v4.223a.365.365,0,1,0,.73,0v-4.7A2.551,2.551,0,0,0,188.972,453.42Z" transform="translate(-179.315 -450.019)" fill="#a6a7a7"/>
      <path id="패스_168" data-name="패스 168" d="M258.994,453.42a2.781,2.781,0,0,0-2.016-.786,2.659,2.659,0,0,0-1.476.458,2.728,2.728,0,0,0-.964.974,2.807,2.807,0,0,0-.964-.979,2.6,2.6,0,0,0-1.534-.453,2.729,2.729,0,0,0-1.914.716,2.62,2.62,0,0,0-.789,2v4.69a.358.358,0,0,0,.716,0v-4.676a2.023,2.023,0,0,1,.6-1.49,2.006,2.006,0,0,1,2.959.139,2.707,2.707,0,0,1,.563,1.761v4.245a.387.387,0,1,0,.774,0h0v-4.537a2.254,2.254,0,0,1,.584-1.548,1.858,1.858,0,0,1,1.447-.657,1.97,1.97,0,0,1,1.556.7,2.771,2.771,0,0,1,.577,1.841v4.223a.365.365,0,1,0,.73,0v-4.7A2.55,2.55,0,0,0,258.994,453.42Z" transform="translate(-204.699 -450.019)" fill="#a6a7a7"/>
      <path id="패스_169" data-name="패스 169" d="M223.528,452.632a.387.387,0,0,0-.387.387v4.261a2.351,2.351,0,0,1-.723,1.775,2.326,2.326,0,0,1-1.746.665,2.365,2.365,0,0,1-1.724-.716,2.846,2.846,0,0,1-.76-2.1v-3.881a.38.38,0,0,0-.76,0v3.728a3.818,3.818,0,0,0,.913,2.628,2.974,2.974,0,0,0,2.33,1.032,3.165,3.165,0,0,0,3.243-3.309v-4.079A.387.387,0,0,0,223.528,452.632Z" transform="translate(-193.121 -450.019)" fill="#a6a7a7"/>
      <path id="패스_170" data-name="패스 170" d="M293.549,452.632a.387.387,0,0,0-.387.387v4.261a2.353,2.353,0,0,1-.723,1.775,2.329,2.329,0,0,1-1.746.665,2.364,2.364,0,0,1-1.724-.716,2.846,2.846,0,0,1-.76-2.1v-3.881a.38.38,0,0,0-.76,0v3.728a3.816,3.816,0,0,0,.914,2.628,2.972,2.972,0,0,0,2.33,1.032,3.166,3.166,0,0,0,3.244-3.309v-4.079A.387.387,0,0,0,293.549,452.632Z" transform="translate(-218.486 -450.019)" fill="#a6a7a7"/>
      <path id="패스_171" data-name="패스 171" d="M319.745,460.407a.387.387,0,0,0,.387-.387v-4.261a2.351,2.351,0,0,1,.723-1.775,2.326,2.326,0,0,1,1.746-.665,2.363,2.363,0,0,1,1.724.716,2.846,2.846,0,0,1,.76,2.1v3.881a.38.38,0,0,0,.76,0v-3.728a3.818,3.818,0,0,0-.913-2.628,2.974,2.974,0,0,0-2.33-1.032,3.165,3.165,0,0,0-3.243,3.309v4.079A.387.387,0,0,0,319.745,460.407Z" transform="translate(-230.045 -450.019)" fill="#a6a7a7"/>
      <path id="패스_172" data-name="패스 172" d="M374.783,460.407a.387.387,0,0,0,.387-.387v-4.261a2.351,2.351,0,0,1,.723-1.775,2.326,2.326,0,0,1,1.746-.665,2.363,2.363,0,0,1,1.724.716,2.846,2.846,0,0,1,.76,2.1v3.881a.38.38,0,0,0,.76,0v-3.728a3.818,3.818,0,0,0-.913-2.628,2.974,2.974,0,0,0-2.33-1.032,3.165,3.165,0,0,0-3.243,3.309v4.079A.387.387,0,0,0,374.783,460.407Z" transform="translate(-250.278 -450.019)" fill="#a6a7a7"/>
      <g id="그룹_255" data-name="그룹 255" transform="translate(109.715 2.613)">
        <path id="패스_173" data-name="패스 173" d="M351.651,452.632a.4.4,0,0,0-.4.4V460a.4.4,0,1,0,.8,0v-6.971A.4.4,0,0,0,351.651,452.632Z" transform="translate(-351.249 -452.632)" fill="#a6a7a7"/>
      </g>
      <g id="그룹_256" data-name="그룹 256" transform="translate(109.583)">
        <path id="패스_174" data-name="패스 174" d="M352.113,449.122a.465.465,0,0,0-.526-.526.478.478,0,0,0-.541.541.473.473,0,0,0,.541.511A.465.465,0,0,0,352.113,449.122Z" transform="translate(-351.046 -448.596)" fill="#8cb808"/>
      </g>
      <path id="패스_175" data-name="패스 175" d="M411.462,459.744h-1.2a3.062,3.062,0,0,1-2.279-.957,2.941,2.941,0,0,1-.877-2.272,3.18,3.18,0,0,1,.971-2.33,3.669,3.669,0,0,1,2.608-.869h.716v0a.327.327,0,0,0,0-.653h-.949a4.069,4.069,0,0,0-3.083,1.257,3.735,3.735,0,0,0-1.067,2.674,3.785,3.785,0,0,0,1.169,2.761,3.452,3.452,0,0,0,2.469,1.067h1.52a.336.336,0,0,0,0-.672Z" transform="translate(-261.525 -450.027)" fill="#a6a7a7"/>
    </g>
  </g>
</svg>
