<svg id="그룹_1185" data-name="그룹 1185" xmlns="http://www.w3.org/2000/svg" width="127.987" height="30.211" viewBox="0 0 127.987 30.211">
  <path id="패스_811" data-name="패스 811" d="M29.152,14.3c2.55,0,5.009,1.234,5.009,3.863,0,3.073-2.054,4.212-4.947,4.212a19.9,19.9,0,0,1-3.112-.221V14.3h3.05ZM33.04,7.426c0,2.154-1.991,3.483-4.479,3.483H26.1V4.576a9.86,9.86,0,0,1,2.831-.411c2.177,0,4.106.95,4.106,3.263Zm5.632,10.831a5.866,5.866,0,0,0-4.23-5.953,5.387,5.387,0,0,0,3.109-5c0-4.021-3.514-6.586-8.678-6.586A21.209,21.209,0,0,0,21.624,2.3v22.96a53.113,53.113,0,0,0,7.123.6C35.53,25.859,38.672,22.532,38.672,18.257ZM8.188,8.227C7.03,9.737,5.9,11.207,4.914,12.588L14.528,25.7h5.009L9.923,12.65a134.583,134.583,0,0,0,8.151-11.4h-4.79C11.781,3.545,9.95,5.931,8.188,8.227ZM4.479,25.7H0V1.252H4.479V25.7Z" transform="translate(0 0.364)" fill="#f9be00" fill-rule="evenodd"/>
  <path id="패스_812" data-name="패스 812" d="M108.652,7.949V0h-4.26V20.49h4.26V11.305h3.92V7.949h-3.92ZM94.468,28.883h15.118V25.557H95.867c-1.027,0-1.213-.411-1.213-1.329V19.064H90.2v6.018C90.2,27.774,91.761,28.883,94.468,28.883ZM95.587,7.348a10.134,10.134,0,0,0,.125-1.394v-5h-4.3v4.97c0,2.184-.776,3.42-2.3,5.033A39.773,39.773,0,0,1,85.2,14.44l2.24,2.692a32.876,32.876,0,0,0,4.076-3.263,17.888,17.888,0,0,0,2.582-2.976,53.908,53.908,0,0,1,4.342,4.441c.313.346.607.674.884.974l1.962-1.837a.682.682,0,0,0,.094-.982,46.544,46.544,0,0,0-5.786-6.142ZM75.642,24c0-1.932-1.805-2.946-4.387-2.946-2.613,0-4.387,1.014-4.387,2.946s1.773,2.946,4.387,2.946C73.839,26.949,75.642,25.936,75.642,24Zm4.323,0c0,4.18-4.012,6.207-8.71,6.207s-8.71-2.059-8.71-6.209,4.014-6.206,8.71-6.206S79.966,19.822,79.966,24ZM62.047,6.524V.633H80.371V3.864H66.5V6.112c0,1.172.249,1.742,1.65,1.742,3.92,0,9.021-.159,12.537-.317v3.073c-1.929.19-4.635.317-7.186.379v2.251H84.291v3.2H58.19v-3.2H69.047V11.083H67.056C63.665,11.083,62.047,9.817,62.047,6.524Zm-23.8.695V9.248c0,.982.5,1.234,1.337,1.234,2.4,0,5.009-.1,8.648-.286V7.221H38.246ZM52.586.7V13.017a119.285,119.285,0,0,1-13.812.76c-3.391,0-4.885-1.361-4.885-4.337V.695h4.357V3.9h9.985V.695h4.355ZM41.045,28.218V19.89H30.188V16.5h26.1v3.39H45.524v8.328Z" transform="translate(15.414)" fill="#7d7366" fill-rule="evenodd"/>
</svg>
