<svg xmlns="http://www.w3.org/2000/svg" xmlns:xlink="http://www.w3.org/1999/xlink" width="138.482" height="50" viewBox="0 0 138.482 50">
  <defs>
    <linearGradient id="linear-gradient" x1="0.035" y1="0.736" x2="1.636" y2="-0.075" gradientUnits="objectBoundingBox">
      <stop offset="0" stop-color="aqua"/>
      <stop offset="0.31" stop-color="#29bfff"/>
      <stop offset="1" stop-color="#8334ff"/>
    </linearGradient>
    <linearGradient id="linear-gradient-2" x1="1.585" y1="1.441" x2="-0.641" y2="0.052" xlink:href="#linear-gradient"/>
    <linearGradient id="linear-gradient-3" x1="0.5" y1="-0.06" x2="0.5" y2="1.678" gradientUnits="objectBoundingBox">
      <stop offset="0.06" stop-color="aqua"/>
      <stop offset="0.274" stop-color="#29bfff"/>
      <stop offset="0.75" stop-color="#8334ff"/>
    </linearGradient>
    <linearGradient id="linear-gradient-4" x1="1.003" y1="0.879" x2="-1.233" y2="-0.808" xlink:href="#linear-gradient"/>
  </defs>
  <g id="그룹_1236" data-name="그룹 1236" transform="translate(-687.273 -902.315)">
    <g id="그룹_1216" data-name="그룹 1216" transform="translate(747.699 906.384)">
      <g id="그룹_1215" data-name="그룹 1215">
        <g id="그룹_1214" data-name="그룹 1214">
          <path id="패스_819" data-name="패스 819" d="M748.022,914.869a9.043,9.043,0,0,1-.8,3.773,9.893,9.893,0,0,1-2.208,3.113,10.232,10.232,0,0,1-3.367,2.113,11.57,11.57,0,0,1-4.282.773,11.384,11.384,0,0,1-4.26-.773,10.3,10.3,0,0,1-3.346-2.113,9.914,9.914,0,0,1-2.207-3.113,9.269,9.269,0,0,1,0-7.547,9.95,9.95,0,0,1,2.207-3.113,10.327,10.327,0,0,1,3.346-2.113,11.414,11.414,0,0,1,4.26-.773,11.6,11.6,0,0,1,4.282.773,10.255,10.255,0,0,1,3.367,2.113,9.929,9.929,0,0,1,2.208,3.113A9.043,9.043,0,0,1,748.022,914.869Zm-5.888,0a4.393,4.393,0,0,0-.335-1.682,4.746,4.746,0,0,0-.958-1.477,4.873,4.873,0,0,0-1.517-1.068,4.643,4.643,0,0,0-1.963-.41,4.493,4.493,0,0,0-1.941.41,4.9,4.9,0,0,0-1.495,1.068,4.75,4.75,0,0,0-.959,1.477,4.408,4.408,0,0,0,0,3.363,4.75,4.75,0,0,0,.959,1.477,4.9,4.9,0,0,0,1.495,1.068,4.492,4.492,0,0,0,1.941.41,4.642,4.642,0,0,0,1.963-.41,4.871,4.871,0,0,0,1.517-1.068,4.746,4.746,0,0,0,.958-1.477A4.388,4.388,0,0,0,742.134,914.869Zm-3.747,31.908a2.931,2.931,0,0,1-1.539-.478,7.215,7.215,0,0,1-1.406-1.112,11.274,11.274,0,0,1-1.271-1.524,2.5,2.5,0,0,1-.513-1.386V934.5h20.027v-2.545H733.659v-4.818h24.22a2.338,2.338,0,0,1,1.471.341,1.8,1.8,0,0,1,.4,1.386v10.364H739.726v1.682a1.236,1.236,0,0,0,.222.727.918.918,0,0,0,.8.319h19.312a.838.838,0,0,1,.894.681,7.06,7.06,0,0,1,.178,1.728,6.9,6.9,0,0,1-.178,1.795.827.827,0,0,1-.894.614Zm15.745-41.862H760.2v6.771h6.735v5.228H760.2v7.136a1.1,1.1,0,0,1-.8,1.114,8.563,8.563,0,0,1-4.461,0,1.1,1.1,0,0,1-.8-1.114Z" transform="translate(-726.746 -904.915)" fill="#41414f"/>
          <path id="패스_820" data-name="패스 820" d="M761.429,913.429v5.54h11.463a.933.933,0,0,1,.981.682,6.592,6.592,0,0,1,.222,1.952,6.806,6.806,0,0,1-.222,2,.933.933,0,0,1-.981.68H761.429v4.451q0,1.043.981,1.043H776.1a.933.933,0,0,1,.981.682,6.6,6.6,0,0,1,.222,1.952,6.8,6.8,0,0,1-.222,2,.933.933,0,0,1-.981.682H760.937a3.729,3.729,0,0,1-1.963-.682,10.3,10.3,0,0,1-1.828-1.453,11.9,11.9,0,0,1-1.294-1.68,3.081,3.081,0,0,1-.579-1.589V908.115H773.56a.936.936,0,0,1,.983.682,6.653,6.653,0,0,1,.222,1.952,6.863,6.863,0,0,1-.222,2,.936.936,0,0,1-.983.682Zm27.252,29.29a1.037,1.037,0,0,1-.8,1.043,7.545,7.545,0,0,1-2.318.274,7.8,7.8,0,0,1-2.23-.25,1,1,0,0,1-.8-1.022V923.327h-6.112v-5.312h6.112V905.209h6.154Z" transform="translate(-710.625 -904.749)" fill="#41414f"/>
        </g>
      </g>
    </g>
    <g id="그룹_1217" data-name="그룹 1217" transform="translate(687.273 902.315)">
      <path id="패스_821" data-name="패스 821" d="M687.273,937.818a2.352,2.352,0,0,0,2.352,2.351h20.257V924.647h-22.61Z" transform="translate(-687.273 -890.184)" fill="url(#linear-gradient)"/>
      <path id="패스_822" data-name="패스 822" d="M722.172,919.866a5.425,5.425,0,0,0-1.858-3.8l-13.664-10.619v19.6h0v.017h.027v3.72a17.384,17.384,0,0,1,10.76-3.72c.052,0,.1,0,.153,0l-.006,0h4.587Z" transform="translate(-676.322 -900.543)" fill="url(#linear-gradient-2)"/>
      <path id="패스_823" data-name="패스 823" d="M706.651,925.048h0v-19.6h0Z" transform="translate(-676.322 -900.543)" fill="#fff"/>
      <path id="패스_824" data-name="패스 824" d="M706.651,925.048h0v-19.6h0Z" transform="translate(-676.322 -900.543)" fill="#fff"/>
      <path id="패스_825" data-name="패스 825" d="M712.055,902.913a3.184,3.184,0,0,0-3.714,0l-19.21,14.93a5.425,5.425,0,0,0-1.858,3.8v15.629h22.61v-10.43H717.6V907.223h0Z" transform="translate(-687.273 -902.315)" fill="url(#linear-gradient-3)"/>
      <path id="패스_826" data-name="패스 826" d="M717.095,922.3l.022.008a10.729,10.729,0,0,0-10.421,10.71v8.488h13.1a2.352,2.352,0,0,0,2.352-2.352V922.3Z" transform="translate(-676.297 -891.509)" fill="url(#linear-gradient-4)"/>
    </g>
  </g>
</svg>
