<svg xmlns="http://www.w3.org/2000/svg" xmlns:xlink="http://www.w3.org/1999/xlink" width="450" height="233" viewBox="0 0 450 233">
  <defs>
    <clipPath id="clip-path">
      <rect id="shutterstock_1748664047" width="450" height="233" rx="5" transform="translate(1342 585.697)" fill="#cef7e7"/>
    </clipPath>
    <clipPath id="clip-path-2">
      <rect id="shutterstock_1748664047-2" data-name="shutterstock_1748664047" width="209" height="242" rx="5" transform="translate(0 -0.157)" fill="#cef7e7"/>
    </clipPath>
  </defs>
  <g id="마스크_그룹_3" data-name="마스크 그룹 3" transform="translate(-1342 -585.697)" clip-path="url(#clip-path)">
    <g id="마스크_그룹_4" data-name="마스크 그룹 4" transform="translate(1563 604.853)" clip-path="url(#clip-path-2)">
      <g id="그룹_296" data-name="그룹 296" transform="translate(11.511 15.047)">
        <path id="패스_177" data-name="패스 177" d="M3179.281,530.734c4.343,1.084,8.589-2.54,15.177-8.162,8.006-6.833,13.585-11.594,13.882-19.264.26-6.73-3.653-12.986-8.164-16.324-2.59-1.918-6.515-2.8-14.365-4.571-8.985-2.024-10.14-1.224-15.345-3.265-6.062-2.375-7.009-4.443-9.795-3.918-4.511.851-8.58,7.5-8.49,13.713.119,8.216,7.429,9.447,15.672,22.855C3174.743,523,3174.127,529.447,3179.281,530.734Z" transform="translate(-3062.494 -475.147)" fill="#163f59"/>
        <g id="그룹_286" data-name="그룹 286" transform="translate(0 78.324)">
          <path id="패스_178" data-name="패스 178" d="M3198.925,563.941c-14.662-4.784-37-8.216-63.7.288a26.084,26.084,0,0,0-17.92,21.819L3095.55,711.291c-1.078,9.1,11.091,17.956,19.665,21.206,8.956,3.394,22.494,6.6,41.663,6.6,20.551,0,35.489,1.193,43.823-2.457,6.917-3.03,17.334-10.359,17.682-17.9l-1.51-128.734A26.126,26.126,0,0,0,3198.925,563.941Z" transform="translate(-3058.733 -559.034)" fill="#2c7eea"/>
          <path id="패스_179" data-name="패스 179" d="M3096.26,618.183s17.366-48.095,36.835-52.72l-9.9,68.148Z" transform="translate(-3058.785 -559.46)" fill="#5479f7"/>
          <path id="패스_180" data-name="패스 180" d="M3254.5,637.562s-6.945-25.834-12.277-40.358c-10.776-29.359-33.827-32.124-33.827-32.124v72.266Z" transform="translate(-3066.221 -559.435)" fill="#2c7eea"/>
          <g id="그룹_283" data-name="그룹 283" transform="translate(0 23.439)">
            <path id="패스_182" data-name="패스 182" d="M3163.2,663.1l-85.271-.13a4.7,4.7,0,0,1-4.558-3.577l-17.108-69.432a4.7,4.7,0,0,1,4.572-5.826l85.272.13a4.7,4.7,0,0,1,4.557,3.577l17.106,69.432A4.7,4.7,0,0,1,3163.2,663.1Z" transform="translate(-3056.124 -584.138)" fill="#ffe4a7"/>
          </g>
          <g id="그룹_284" data-name="그룹 284" transform="translate(5.558 55.16)">
            <path id="패스_184" data-name="패스 184" d="M3062.941,620.9l2.494,6.948,20.518-9.732s11.261,9.78-16.087,22.247C3058.468,645.555,3062.941,620.9,3062.941,620.9Z" transform="translate(-3062.076 -618.112)" fill="#ffd8c9"/>
          </g>
          <g id="그룹_285" data-name="그룹 285" transform="translate(96.067 29.878)">
            <path id="패스_186" data-name="패스 186" d="M3194.385,599.751s38.3,21.576,46.194,28.345,16.464,11.909,5.3,26.665-58.6-44.488-58.6-44.488-9.129,1.5-12.3-10.94c0,0-15.414.528-15.966-4.311l21.743-3.855a8.616,8.616,0,0,1,7.679,2.474Z" transform="translate(-3159.015 -591.034)" fill="#ffd8c9"/>
          </g>
        </g>
        <g id="그룹_292" data-name="그룹 292" transform="translate(31.927 201.962)">
          <g id="그룹_289" data-name="그룹 289" transform="translate(27.935 225.906)">
            <g id="그룹_287" data-name="그룹 287" transform="translate(4.717)">
              <path id="패스_188" data-name="패스 188" d="M3146.745,934.9l12.7,37.888s-13.832-1.181-15.154-.923-17.5-34.553-17.5-34.553Z" transform="translate(-3125.389 -933.504)" fill="#fff"/>
              <path id="패스_189" data-name="패스 189" d="M3159.345,974.092c-.039,0-.079,0-.118,0-6.544-.558-13.862-1.06-14.79-.938-1.312.257-1.861.364-10.752-17.946-4.167-8.581-8.224-17.307-8.264-17.394a1.4,1.4,0,0,1,1.1-1.982l19.958-2.412a1.392,1.392,0,0,1,1.495.945l12.7,37.888a1.4,1.4,0,0,1-1.328,1.845Zm-14.408-3.75c2.49,0,8.4.447,12.4.776l-11.659-34.786-16.906,2.044c5.521,11.822,13.867,29.131,15.929,31.968Zm-.923.038c-.031,0-.061.01-.093.015Z" transform="translate(-3125.29 -933.404)" fill="#333"/>
            </g>
            <g id="그룹_288" data-name="그룹 288" transform="translate(0 21.992)">
              <path id="패스_190" data-name="패스 190" d="M3156.2,966.028s-19.1-7.829-22.628,2c-4.492,12.5-11.514,31.565-11.514,31.565a5.348,5.348,0,0,0,4.611,7.14c6.979.562,17.388,1.016,22.238-.685,7.656-2.686,20.357-26.917,20.357-26.917l-3.915-20.616S3158.424,957.534,3156.2,966.028Z" transform="translate(-3120.338 -957.06)" fill="#b7d0e6"/>
              <path id="패스_191" data-name="패스 191" d="M3137.8,1008.538c-3.817,0-7.845-.231-11.347-.513a6.749,6.749,0,0,1-5.817-9.009c.074-.2,7.075-19.217,11.514-31.565a8.1,8.1,0,0,1,4.506-4.808c5.825-2.59,15.022.2,18.548,1.451,2.331-6.36,7.6-7.443,10.238-7.071a1.4,1.4,0,0,1,1.18,1.126l3.914,20.616a1.384,1.384,0,0,1-.135.91c-1.325,2.531-13.186,24.8-21.134,27.589C3146.572,1008.213,3142.335,1008.538,3137.8,1008.538Zm4.715-44.175a11.74,11.74,0,0,0-4.724.841,5.327,5.327,0,0,0-3,3.194c-4.442,12.359-11.448,31.385-11.519,31.575a3.95,3.95,0,0,0,3.411,5.26c10.453.842,18.144.625,21.664-.612,5.727-2.009,15.689-18.91,19.353-25.815l-3.612-19.013c-1.713.133-5.215,1.091-6.629,6.489a1.4,1.4,0,0,1-1.886.942C3155.481,967.187,3148.487,964.362,3142.518,964.362Z" transform="translate(-3120.238 -956.959)" fill="#333"/>
            </g>
            <path id="패스_192" data-name="패스 192" d="M3146.834,1002.618h-19.615a1.4,1.4,0,1,1,0-2.8h19.615a1.4,1.4,0,0,1,0,2.8Z" transform="translate(-3120.607 -937.809)" fill="#444"/>
          </g>
          <g id="그룹_290" data-name="그룹 290" transform="translate(66.943 234.226)">
            <path id="패스_193" data-name="패스 193" d="M3185.187,944.8l-4.316,38.112-17.356-4.761,1.337-34.339Z" transform="translate(-3162.116 -942.415)" fill="#fff"/>
            <path id="패스_194" data-name="패스 194" d="M3180.773,984.217a1.437,1.437,0,0,1-.37-.049l-17.357-4.761a1.4,1.4,0,0,1-1.029-1.406l1.336-34.339a1.4,1.4,0,0,1,1.469-1.344l20.334.988a1.4,1.4,0,0,1,1.322,1.557l-4.313,38.112a1.405,1.405,0,0,1-1.393,1.243ZM3164.859,977l14.707,4.034,3.962-35-17.43-.846Z" transform="translate(-3162.016 -942.316)" fill="#333"/>
          </g>
          <g id="그룹_291" data-name="그룹 291" transform="translate(52.383 261.309)">
            <path id="패스_195" data-name="패스 195" d="M3181.475,1012.918h-27.463a6.085,6.085,0,0,1-6.026-6.97c.916-6.2,3.9-16.49,12.858-30.642a5.347,5.347,0,0,1,4.513-2.484h8.352a2.811,2.811,0,0,1,2.8,2.52l.632,6.026,3.635-4.8a81.881,81.881,0,0,1,6.795,30.152A6.1,6.1,0,0,1,3181.475,1012.918Z" transform="translate(-3146.52 -971.422)" fill="#b7d0e6"/>
            <path id="패스_196" data-name="패스 196" d="M3181.376,1014.219h-27.463a7.482,7.482,0,0,1-7.41-8.576c.927-6.279,3.947-16.786,13.059-31.186a6.709,6.709,0,0,1,5.7-3.135h8.351a4.2,4.2,0,0,1,4.191,3.776l.262,2.5,1.495-1.975a1.385,1.385,0,0,1,1.261-.548,1.4,1.4,0,0,1,1.122.793,82.493,82.493,0,0,1,6.928,30.726,7.5,7.5,0,0,1-7.493,7.626Zm-16.117-40.1a3.968,3.968,0,0,0-3.329,1.833c-8.851,13.984-11.768,24.086-12.658,30.1a4.685,4.685,0,0,0,4.641,5.365h27.463a4.692,4.692,0,0,0,4.692-4.774,81.5,81.5,0,0,0-5.736-27.4l-2.175,2.874a1.4,1.4,0,0,1-2.511-.7l-.631-6.025a1.408,1.408,0,0,0-1.406-1.266Z" transform="translate(-3146.422 -971.322)" fill="#333"/>
          </g>
          <path id="패스_197" data-name="패스 197" d="M3183.613,1010.037h-32.875a1.4,1.4,0,0,1,0-2.8h32.875a1.4,1.4,0,0,1,0,2.8Z" transform="translate(-3094.232 -712.395)" fill="#444"/>
          <path id="패스_198" data-name="패스 198" d="M3115.147,699.184a6.371,6.371,0,0,1,3.988-3.671,97.851,97.851,0,0,1,81.094,11.663,6.4,6.4,0,0,1,2.932,4.934c1.3,18.314,6.161,114.059-24.126,227.422l-20.4-1.453-4.161-193.831s-30.22,71.059-5.646,184.148l-21.222,3.918s-31.054-40.834-36.616-103.231C3086.07,773.884,3109.642,712.592,3115.147,699.184Z" transform="translate(-3090.318 -691.453)" fill="#316091"/>
          <path id="패스_199" data-name="패스 199" d="M3179.669,859.26a1.4,1.4,0,0,1-.06-2.8c16.919-.73,18.893-24.5,18.909-24.741a1.4,1.4,0,0,1,2.794.209c-.02.264-2.2,26.5-21.583,27.331Z" transform="translate(-3096.15 -700.669)" fill="#fff"/>
          <path id="패스_200" data-name="패스 200" d="M3156.177,765.975h-.042a1.4,1.4,0,0,1-1.359-1.442l.7-23.492-12.1-8.51a1.4,1.4,0,0,1,1.611-2.291l12.719,8.943a1.394,1.394,0,0,1,.594,1.187l-.718,24.247A1.4,1.4,0,0,1,3156.177,765.975Z" transform="translate(-3093.798 -694.008)" fill="#fff"/>
        </g>
        <g id="그룹_295" data-name="그룹 295" transform="translate(85.502 21.693)">
          <g id="그룹_293" data-name="그룹 293" transform="translate(0 0)">
            <path id="패스_201" data-name="패스 201" d="M3187.463,553.854a13.1,13.1,0,0,1-5.833-11.229l.426-18.66c.127-.117.254-.236.378-.353,0,0,7.475.5,8.563-3.308s-4.2-4.537-4.2-4.537,4.993-10.5-7.921-10.382c-3.468.033-4.708-5.715-10.4-7,0,0-2.813-.241-5.666,7.139l-6.247,9.245,3.121,1.711a35,35,0,0,0-.629,11.5,3.038,3.038,0,0,0,2.086,2.544,19.225,19.225,0,0,0,3.694.8l-1.007,12.489a18.429,18.429,0,0,1-7.8,13.6,92.2,92.2,0,0,1-8.341,5.191,153.791,153.791,0,0,0,49.495-2.893S3192.081,556.912,3187.463,553.854Z" transform="translate(-3147.698 -498.381)" fill="#ffd8c9"/>
          </g>
        </g>
      </g>
    </g>
  </g>
</svg>
