<svg xmlns="http://www.w3.org/2000/svg" width="72" height="70.714" viewBox="0 0 72 70.714">
  <g id="그룹_1240" data-name="그룹 1240" transform="translate(-421 -468)">
    <rect id="사각형_29" data-name="사각형 29" width="72" height="70.714" rx="35" transform="translate(421 468)" fill="#fff"/>
    <g id="그룹_216" data-name="그룹 216" transform="translate(-13 66.951)">
      <g id="그룹_131" data-name="그룹 131" transform="translate(455 417.048)">
        <rect id="사각형_80" data-name="사각형 80" width="29.904" height="29.026" transform="translate(0.481 8.711)" fill="#fff"/>
        <g id="그룹_130" data-name="그룹 130" transform="translate(0 0)">
          <path id="패스_151" data-name="패스 151" d="M846.111,212v4.34H815.726V187.694h2.17" transform="translate(-815.726 -178.599)" fill="none" stroke="#444" stroke-linecap="round" stroke-miterlimit="10" stroke-width="1.5"/>
          <path id="패스_152" data-name="패스 152" d="M838.031,187.694h3.42v25.82" transform="translate(-811.066 -178.599)" fill="none" stroke="#444" stroke-linecap="round" stroke-miterlimit="10" stroke-width="1.5"/>
          <path id="패스_153" data-name="패스 153" d="M835.142,184.059h-2.8a3.731,3.731,0,0,0-7.463,0h-2.8a2.8,2.8,0,0,0-2.8,2.8v2.8h18.656v-2.8A2.8,2.8,0,0,0,835.142,184.059Z" transform="translate(-813.584 -180.328)" fill="none" stroke="#444" stroke-linecap="round" stroke-miterlimit="10" stroke-width="1.5"/>
          <line id="선_25" data-name="선 25" y2="1.866" transform="translate(15.029 2.799)" fill="none" stroke="#444" stroke-linecap="round" stroke-miterlimit="10" stroke-width="1.5"/>
          <line id="선_26" data-name="선 26" x2="2.215" transform="translate(7.126 17.955)" fill="none" stroke="#0079f2" stroke-linecap="round" stroke-linejoin="round" stroke-width="1.5"/>
          <line id="선_27" data-name="선 27" x2="11.977" transform="translate(12.869 17.955)" fill="none" stroke="#0079f2" stroke-linecap="round" stroke-linejoin="round" stroke-width="1.5"/>
          <line id="선_28" data-name="선 28" x2="2.215" transform="translate(7.126 22.385)" fill="none" stroke="#0079f2" stroke-linecap="round" stroke-linejoin="round" stroke-width="1.5"/>
          <line id="선_29" data-name="선 29" x2="11.977" transform="translate(12.869 22.385)" fill="none" stroke="#0079f2" stroke-linecap="round" stroke-linejoin="round" stroke-width="1.5"/>
          <line id="선_30" data-name="선 30" x2="2.215" transform="translate(7.126 26.815)" fill="none" stroke="#0079f2" stroke-linecap="round" stroke-linejoin="round" stroke-width="1.5"/>
          <line id="선_31" data-name="선 31" x2="11.977" transform="translate(12.869 26.815)" fill="none" stroke="#0079f2" stroke-linecap="round" stroke-linejoin="round" stroke-width="1.5"/>
        </g>
      </g>
    </g>
  </g>
</svg>
