<svg xmlns="http://www.w3.org/2000/svg" width="72" height="70.714" viewBox="0 0 72 70.714">
  <g id="그룹_1241" data-name="그룹 1241" transform="translate(-622 -467)">
    <rect id="사각형_136" data-name="사각형 136" width="72" height="70.714" rx="35" transform="translate(622 467)" fill="#fff"/>
    <g id="그룹_250" data-name="그룹 250" transform="translate(-155.245 342.138)">
      <g id="mobile_marketing" data-name="mobile marketing" transform="translate(794.245 141.862)">
        <g id="_Grupo_" data-name="&lt;Grupo&gt;">
          <path id="패스_136" data-name="패스 136" d="M817.725,149.715a5.888,5.888,0,0,1,4.362,10.535" transform="translate(-794.204 -142.375)" fill="#2e81f8"/>
          <path id="패스_135" data-name="패스 135" d="M806.928,165.474s11.793-2.332,18.18.764l-9.924-23.961c-2.1,7.25-12.315,13.395-12.315,13.395" transform="translate(-794.878 -141.843)" fill="#fff" stroke="#444" stroke-linecap="round" stroke-linejoin="round" stroke-width="1.5"/>
          <g id="그룹_116" data-name="그룹 116" transform="translate(29.057)">
            <line id="선_16" data-name="선 16" y1="1.353" x2="3.267" transform="translate(2.745 8.355)" fill="none" stroke="#444" stroke-linecap="round" stroke-linejoin="round" stroke-width="1.5"/>
            <line id="선_17" data-name="선 17" x2="3.267" y2="1.353" transform="translate(5.359 16.204)" fill="none" stroke="#444" stroke-linecap="round" stroke-linejoin="round" stroke-width="1.5"/>
            <line id="선_18" data-name="선 18" y1="3.267" x2="1.353" fill="none" stroke="#444" stroke-linecap="round" stroke-linejoin="round" stroke-width="1.5"/>
          </g>
          <g id="그룹_115" data-name="그룹 115" transform="translate(4.971 23.631)">
            <path id="패스_137" data-name="패스 137" d="M799.981,167.4l8.168,9.933a1.767,1.767,0,0,0,2.042.511l4.78-1.98a1.179,1.179,0,0,0,.639-1.54l-.389-.94a2.95,2.95,0,0,0-.873-1.166l-4.169-3.363a7.066,7.066,0,0,1-1.645-1.9l-1.473-2.487" transform="translate(-799.981 -164.467)" fill="#fff" stroke="#444" stroke-linejoin="round" stroke-width="1.5"/>
          </g>
          <path id="패스_138" data-name="패스 138" d="M805.471,160.536l1.8,4.356-6.534,2.707a2.357,2.357,0,0,1-3.081-1.275l-2.255-5.446a2.357,2.357,0,0,1,1.275-3.081l6.535-2.707.451,1.089" transform="translate(-795.225 -141.261)" fill="#fff" stroke="#444" stroke-linecap="round" stroke-linejoin="round" stroke-width="1.5"/>
        </g>
      </g>
    </g>
  </g>
</svg>
