<svg xmlns="http://www.w3.org/2000/svg" width="140.616" height="26.101" viewBox="0 0 140.616 26.101">
  <g id="그룹_1184" data-name="그룹 1184" transform="translate(-36.674 -46.606)">
    <path id="패스_806" data-name="패스 806" d="M55.444,46.606V59.774L46.425,46.606H36.674v26.1h9.717V59.539l9.021,13.168h9.749v-26.1Z" fill="#39ad36"/>
    <path id="패스_807" data-name="패스 807" d="M169.433,62.943a7.236,7.236,0,0,0,5.679-7.455c0-6.723-5.337-8.882-12.368-8.882H150.6v26.1h9.715v-8.15l5.8,8.15h11.17Zm-4.774-5.317a4.512,4.512,0,0,1-2.562.687h-2.085v-5.14h2.045a4.48,4.48,0,0,1,2.641.7,2.393,2.393,0,0,1,.791,1.917A2.223,2.223,0,0,1,164.659,57.626Z" fill="#39ad36"/>
    <path id="패스_808" data-name="패스 808" d="M126.921,46.606h19.7v6.8H136.546v3.073h9.283V62.89h-9.283v3.019h10.385v6.8h-20.01Z" fill="#39ad36"/>
    <path id="패스_809" data-name="패스 809" d="M88.549,46.606H77.467l-10.224,26.1h10.81L79,69.3h8.026l.944,3.408H98.774Zm-7.96,16.66,2.287-8.61h.266l2.289,8.61Z" fill="#39ad36"/>
    <path id="패스_810" data-name="패스 810" d="M114.243,46.606l-4.79,15.738h-.268L104.4,46.606H93.8l10.934,26.1h9.173l10.933-26.1Z" fill="#39ad36"/>
  </g>
</svg>
