<svg xmlns="http://www.w3.org/2000/svg" width="24" height="24" viewBox="0 0 24 24">
  <g id="그룹_110" data-name="그룹 110" transform="translate(-1385 -288)">
    <g id="사각형_74" data-name="사각형 74" transform="translate(1385 288)" fill="#fff" stroke="#eee" stroke-width="1">
      <rect width="24" height="24" rx="12" stroke="none"/>
      <rect x="0.5" y="0.5" width="23" height="23" rx="11.5" fill="none"/>
    </g>
    <g id="그룹_109" data-name="그룹 109" transform="translate(1388 291)">
      <rect id="Boundary" width="18" height="18" transform="translate(0 0)" fill="none"/>
      <path id="_Color" data-name=" ↳Color" d="M7.3,11.892H4.806a.312.312,0,0,1-.312-.253l-.233-1.576a4.6,4.6,0,0,1-1.05-.58l-1.548.595a.355.355,0,0,1-.108.017.31.31,0,0,1-.273-.151L.037,7.886a.3.3,0,0,1,.078-.379L1.43,6.526a3.6,3.6,0,0,1-.047-.58,3.537,3.537,0,0,1,.054-.58L.123,4.385a.279.279,0,0,1-.078-.379L1.29,1.947a.312.312,0,0,1,.27-.154.318.318,0,0,1,.111.02l1.549.595a4.749,4.749,0,0,1,1.05-.58L4.5.253A.3.3,0,0,1,4.806,0H7.3a.307.307,0,0,1,.312.253l.233,1.576a4.619,4.619,0,0,1,1.05.58l1.548-.595a.355.355,0,0,1,.108-.017.31.31,0,0,1,.273.151l1.245,2.059a.3.3,0,0,1-.078.379l-1.315.981a3.541,3.541,0,0,1,.047.58,4.636,4.636,0,0,1-.039.58l1.3.981a.279.279,0,0,1,.078.379L10.812,9.944a.312.312,0,0,1-.27.154.318.318,0,0,1-.111-.02L8.883,9.483a4.7,4.7,0,0,1-1.05.58L7.6,11.639A.291.291,0,0,1,7.3,11.892ZM6.051,3.716a2.286,2.286,0,0,0-2.334,2.23,2.286,2.286,0,0,0,2.334,2.23,2.286,2.286,0,0,0,2.334-2.23A2.286,2.286,0,0,0,6.051,3.716Z" transform="translate(2.681 2.675)" fill="#838ea2"/>
    </g>
  </g>
</svg>
