<svg xmlns="http://www.w3.org/2000/svg" width="72" height="70.714" viewBox="0 0 72 70.714">
  <g id="그룹_815" data-name="그룹 815" transform="translate(-466 -1221)">
    <g id="그룹_812" data-name="그룹 812" transform="translate(-222 18)">
      <rect id="사각형_433" data-name="사각형 433" width="72" height="70.714" rx="35" transform="translate(688 1203)" fill="#f9f9f9"/>
    </g>
    <g id="그룹_814" data-name="그룹 814" transform="translate(-671.87 -354.675)">
      <g id="그룹_813" data-name="그룹 813" transform="translate(1157.87 1593.675)">
        <path id="패스_764" data-name="패스 764" d="M1179.87,1621.669v3.172a3.793,3.793,0,0,1-3.793,3.793h-14.413a3.793,3.793,0,0,1-3.793-3.793v-27.372a3.791,3.791,0,0,1,3.793-3.793h14.413a3.793,3.793,0,0,1,3.793,3.793V1621.7" transform="translate(-1157.87 -1593.675)" fill="#fff" stroke="#333" stroke-linecap="round" stroke-linejoin="round" stroke-width="1.5"/>
        <line id="선_225" data-name="선 225" x2="4.552" transform="translate(8.723 31.166)" fill="none" stroke="#333" stroke-linecap="round" stroke-linejoin="round" stroke-width="1.5"/>
        <line id="선_226" data-name="선 226" x2="1.642" transform="translate(10.178 3.525)" fill="none" stroke="#333" stroke-linecap="round" stroke-linejoin="round" stroke-width="1.5"/>
      </g>
    </g>
    <rect id="사각형_434" data-name="사각형 434" width="16" height="20" transform="translate(489 1246)" fill="#0079f2"/>
    <text id="v1" transform="translate(510 1272)" fill="#222" font-size="10" font-family="Pretendard-Medium, Pretendard" font-weight="500" letter-spacing="-0.03em"><tspan x="0" y="0">v1</tspan></text>
  </g>
</svg>
