<svg xmlns="http://www.w3.org/2000/svg" width="72" height="70.714" viewBox="0 0 72 70.714">
  <g id="그룹_815" data-name="그룹 815" transform="translate(-466 -1221)">
    <g id="그룹_812" data-name="그룹 812" transform="translate(-222 18)">
      <rect id="사각형_433" data-name="사각형 433" width="72" height="70.714" rx="35" transform="translate(688 1203)" fill="#f9f9f9"/>
    </g>
    <g id="그룹_1005" data-name="그룹 1005" transform="translate(0 1)">
      <g id="그룹_1002" data-name="그룹 1002" transform="translate(132.813 1061.379)">
        <g id="그룹_1001" data-name="그룹 1001" transform="translate(350.187 184.479)">
          <path id="패스_798" data-name="패스 798" d="M372.453,203.025c-.754,0-1.9.74-3.881,2.2a8.516,8.516,0,0,1-.907.621c-.55,0-2.223-1.03-5.125-3.932-3.3-3.3-4.014-4.816-3.925-5.164.055-.107.353-.511.615-.868,1.457-1.982,2.2-3.126,2.2-3.881,0-1.284-3.746-6.65-4.353-7.257a.946.946,0,0,0-.693-.264c-1.41,0-6.195,3.393-6.195,5.472a18.646,18.646,0,0,0,4.118,10.2,53.748,53.748,0,0,0,9.994,9.994,18.644,18.644,0,0,0,10.2,4.119c1.874,0,4.6-3.708,5.247-5.273.114-.276.462-1.114-.039-1.615C379.1,206.771,373.737,203.025,372.453,203.025Zm3.839,8.731c-.89.917-1.52,1.243-1.79,1.243a17.623,17.623,0,0,1-9.425-3.852,52.4,52.4,0,0,1-9.771-9.771,17.624,17.624,0,0,1-3.851-9.425c0-1.185,3.746-4.018,4.831-4.2.886,1.018,3.8,5.484,3.875,6.244a14.188,14.188,0,0,1-1.951,3.131,8.134,8.134,0,0,0-.738,1.073c-.243.486-.812,1.624,4.172,6.606,4.284,4.284,5.585,4.3,6.016,4.3a1.009,1.009,0,0,0,.557-.116,7.656,7.656,0,0,0,1.106-.752,14.473,14.473,0,0,1,3.118-1.952c.773.079,5.235,2.987,6.256,3.874A10.594,10.594,0,0,1,376.292,211.756Z" transform="translate(-350.187 -184.479)" fill="#222" stroke="#222" stroke-width="0.5"/>
        </g>
        <path id="패스_799" data-name="패스 799" d="M377.059,212.514c-.89.918-1.52,1.243-1.79,1.243a17.626,17.626,0,0,1-9.425-3.851,52.427,52.427,0,0,1-9.771-9.772,17.625,17.625,0,0,1-3.852-9.425c0-1.186,3.746-4.019,4.831-4.2.886,1.018,3.8,5.484,3.875,6.243a14.194,14.194,0,0,1-1.951,3.131,8.172,8.172,0,0,0-.737,1.073c-.243.486-.812,1.624,4.172,6.606,4.284,4.284,5.585,4.3,6.016,4.3a1.02,1.02,0,0,0,.557-.116A7.69,7.69,0,0,0,370.09,207a14.475,14.475,0,0,1,3.118-1.952c.773.079,5.235,2.987,6.256,3.874A10.594,10.594,0,0,1,377.059,212.514Z" transform="translate(-0.762 -0.763)" fill="#fff"/>
      </g>
      <g id="그룹_1004" data-name="그룹 1004" transform="translate(354.234 1187)">
        <path id="패스_791" data-name="패스 791" d="M151.606,49H167.24a2.606,2.606,0,0,1,2.606,2.606V62.029a3.474,3.474,0,0,1-3.474,3.474h-7.817l-3.648,4.864a.869.869,0,0,1-1.563-.521V65.5h-1.737A2.606,2.606,0,0,1,149,62.9V51.606A2.606,2.606,0,0,1,151.606,49Z" transform="translate(-2.234)" fill="#0079f2"/>
        <path id="패스_792" data-name="패스 792" d="M156,58.343l3.474,3.474L165.554,54" transform="translate(-3.154 -0.657)" fill="none" stroke="#fff" stroke-miterlimit="10" stroke-width="1.5"/>
      </g>
    </g>
  </g>
</svg>
