<svg xmlns="http://www.w3.org/2000/svg" width="72" height="70.714" viewBox="0 0 72 70.714">
  <g id="그룹_815" data-name="그룹 815" transform="translate(-466 -1221)">
    <g id="그룹_812" data-name="그룹 812" transform="translate(-222 18)">
      <rect id="사각형_433" data-name="사각형 433" width="72" height="70.714" rx="35" transform="translate(688 1203)" fill="#f9f9f9"/>
    </g>
    <g id="그룹_998" data-name="그룹 998" transform="translate(352 1187)">
      <rect id="사각형_466" data-name="사각형 466" width="10" height="8" transform="translate(135 82)" fill="#fff"/>
      <path id="패스_786" data-name="패스 786" d="M140.474,68.686a3.56,3.56,0,0,0,3.474-3.722V63.722a3.483,3.483,0,1,0-6.949,0v1.242A3.56,3.56,0,0,0,140.474,68.686Z" transform="translate(-0.657 -1.446)" fill="#fff" stroke="#222" stroke-miterlimit="10" stroke-width="1.5"/>
      <path id="패스_787" data-name="패스 787" d="M146.766,74.737A14.036,14.036,0,0,0,141.554,73h-4.343C134.1,73,132,74.313,132,78.211v3.474c0,3.474,2.813,4.343,5.211,4.343h3.474" transform="translate(0 -3.154)" fill="#fff" stroke="#222" stroke-linejoin="round" stroke-width="1.5"/>
      <path id="패스_788" data-name="패스 788" d="M137,78v3.474a.869.869,0,0,0,.869.869h5.211" transform="translate(-0.657 -3.811)" fill="none" stroke="#222" stroke-linejoin="round" stroke-width="1.5"/>
      <line id="선_237" data-name="선 237" y2="7" transform="translate(135 82.823)" fill="none" stroke="#222" stroke-linejoin="round" stroke-width="1.5"/>
      <line id="선_238" data-name="선 238" y2="5" transform="translate(145 84.823)" fill="none" stroke="#222" stroke-linejoin="round" stroke-width="1.5"/>
      <line id="선_239" data-name="선 239" x2="4" y2="3" transform="translate(140 73.823)" fill="none" stroke="#222" stroke-linejoin="round" stroke-width="1.5"/>
      <path id="패스_790" data-name="패스 790" d="M153.16,81.474,154.9,78h-8.686L141,88.423h8.686l1.737-3.474" transform="translate(-1.183 -3.811)" fill="#fff" stroke="#222" stroke-linejoin="round" stroke-width="1.5"/>
      <g id="그룹_1003" data-name="그룹 1003">
        <path id="패스_791" data-name="패스 791" d="M151.606,49H167.24a2.606,2.606,0,0,1,2.606,2.606V62.029a3.474,3.474,0,0,1-3.474,3.474h-7.817l-3.648,4.864a.869.869,0,0,1-1.563-.521V65.5h-1.737A2.606,2.606,0,0,1,149,62.9V51.606A2.606,2.606,0,0,1,151.606,49Z" transform="translate(-2.234)" fill="#0079f2"/>
        <path id="패스_792" data-name="패스 792" d="M156,58.343l3.474,3.474L165.554,54" transform="translate(-3.154 -0.657)" fill="none" stroke="#fff" stroke-miterlimit="10" stroke-width="1.5"/>
      </g>
      <path id="패스_789" data-name="패스 789" d="M153.269,85.474H150L151.737,82h2.938a.868.868,0,0,1,.777,1.257l-.628,1.257A1.738,1.738,0,0,1,153.269,85.474Z" transform="translate(-2.366 -4.337)" fill="#fff" stroke="#222" stroke-linejoin="round" stroke-width="1.5"/>
    </g>
  </g>
</svg>
