<svg xmlns="http://www.w3.org/2000/svg" width="72" height="70.714" viewBox="0 0 72 70.714">
  <g id="그룹_1266" data-name="그룹 1266" transform="translate(-990 -1212)">
    <g id="그룹_812" data-name="그룹 812" transform="translate(302 9)">
      <rect id="사각형_433" data-name="사각형 433" width="72" height="70.714" rx="35" transform="translate(688 1203)" fill="#f9f9f9"/>
    </g>
    <g id="그룹_1054" data-name="그룹 1054" transform="translate(-4)">
      <g id="그룹_1052" data-name="그룹 1052" transform="translate(267)">
        <g id="그룹_814" data-name="그룹 814" transform="translate(-409.87 -363.654)">
          <g id="그룹_813" data-name="그룹 813" transform="translate(1157.87 1593.675)">
            <path id="패스_764" data-name="패스 764" d="M1179.87,1621.669v3.172a3.793,3.793,0,0,1-3.793,3.793h-14.413a3.793,3.793,0,0,1-3.793-3.793v-27.372a3.791,3.791,0,0,1,3.793-3.793h14.413a3.793,3.793,0,0,1,3.793,3.793V1621.7" transform="translate(-1157.87 -1593.675)" fill="#fff" stroke="#333" stroke-linecap="round" stroke-linejoin="round" stroke-width="1.5"/>
            <line id="선_225" data-name="선 225" x2="4.552" transform="translate(8.723 31.166)" fill="none" stroke="#333" stroke-linecap="round" stroke-linejoin="round" stroke-width="1.5"/>
            <line id="선_226" data-name="선 226" x2="1.642" transform="translate(10.178 3.525)" fill="none" stroke="#333" stroke-linecap="round" stroke-linejoin="round" stroke-width="1.5"/>
          </g>
        </g>
        <rect id="사각형_434" data-name="사각형 434" width="16" height="20" transform="translate(751 1237)" fill="#0079f2"/>
      </g>
      <g id="blogging" transform="translate(548 1021.618)">
        <g id="그룹_1053" data-name="그룹 1053" transform="translate(480 205.176)">
          <path id="패스_803" data-name="패스 803" d="M500.552,220.985a1.581,1.581,0,0,0,1.581-1.581V206.757a1.581,1.581,0,0,0-1.581-1.581H481.581A1.581,1.581,0,0,0,480,206.757v18.436a.4.4,0,0,0,.675.279l4.481-4.487h15.4" transform="translate(-480 -205.176)" fill="#fff" stroke="#222" stroke-linecap="round" stroke-linejoin="round" stroke-width="1.5"/>
          <line id="선_245" data-name="선 245" x2="13" transform="translate(5 5.91)" fill="#fff" stroke="#222" stroke-linecap="round" stroke-linejoin="round" stroke-width="1.5"/>
          <line id="선_246" data-name="선 246" x2="2" transform="translate(5 9.91)" fill="#fff" stroke="#222" stroke-linecap="round" stroke-linejoin="round" stroke-width="1.5"/>
        </g>
      </g>
    </g>
  </g>
</svg>
